<?xml version="1.0" standalone="no"?>
<!DOCTYPE svg PUBLIC "-//W3C//DTD SVG 20010904//EN"
 "http://www.w3.org/TR/2001/REC-SVG-20010904/DTD/svg10.dtd">
<svg version="1.0" xmlns="http://www.w3.org/2000/svg"
 width="200.000000pt" height="200.000000pt" viewBox="0 0 200.000000 200.000000"
 preserveAspectRatio="xMidYMid meet">
<metadata>
Created by potrace 1.13, written by Peter Selinger 2001-2015
</metadata>
<g transform="translate(0.000000,200.000000) scale(0.100000,-0.100000)"
fill="#000000" stroke="none">
<path d="M1048 1891 c-15 -3 -46 -17 -68 -31 -86 -52 -270 -210 -270 -233 0
-6 -6 -18 -13 -26 -31 -36 -62 -231 -53 -333 9 -102 16 -150 26 -173 5 -11 11
-61 13 -111 2 -50 8 -98 13 -107 6 -10 10 79 11 231 2 136 6 261 9 277 11 50
42 102 81 134 35 29 43 31 113 31 41 -1 92 -7 113 -15 35 -12 43 -11 80 6 23
10 65 19 92 19 28 0 83 7 124 15 40 9 76 13 79 10 3 -3 6 -21 5 -39 -1 -22 7
-43 23 -61 l24 -28 0 24 c1 44 20 -6 40 -100 10 -49 27 -117 38 -152 38 -121
46 -196 32 -315 -7 -60 -13 -145 -15 -189 -2 -52 -7 -79 -14 -78 -6 2 -11 -2
-11 -8 0 -18 -50 -116 -65 -129 -8 -7 -13 -16 -10 -20 5 -7 -50 -70 -61 -70
-4 0 -4 9 -1 20 3 11 1 18 -4 14 -10 -6 -12 4 -10 56 1 33 1 34 -14 16 -8 -11
-15 -30 -15 -42 0 -17 -5 -22 -20 -19 -11 2 -24 -3 -30 -13 -6 -11 -9 -12 -10
-4 0 10 -3 10 -15 -2 -8 -8 -12 -21 -9 -29 3 -8 -5 -34 -17 -57 l-23 -44 -7
27 c-4 15 -3 42 2 60 14 50 12 60 -13 54 -13 -3 -57 -9 -98 -12 -41 -4 -76 -8
-77 -9 -7 -6 11 -45 18 -40 5 3 4 -6 -3 -20 -15 -34 -22 -33 -38 9 -8 19 -17
35 -21 35 -4 0 -10 14 -14 30 -4 17 -15 35 -26 40 -13 7 -19 21 -19 43 0 20
-9 42 -21 56 -32 35 -18 54 34 46 23 -4 51 -12 61 -17 29 -15 142 -4 216 22
36 12 87 23 114 24 51 1 71 18 39 33 -10 5 -28 8 -41 7 -12 0 -25 3 -28 7 -3
5 -14 4 -25 -2 -11 -6 -27 -8 -35 -5 -29 11 -74 -6 -91 -35 -22 -37 -60 -38
-100 -5 -26 22 -36 24 -84 19 -83 -8 -92 -16 -87 -71 3 -26 12 -63 20 -82 19
-42 29 -92 16 -84 -12 8 -88 108 -115 152 -13 21 -23 32 -23 26 0 -12 45 -101
78 -154 24 -39 29 -70 10 -70 -16 -1 -98 -74 -98 -87 0 -5 -28 -22 -62 -36
-34 -15 -59 -29 -56 -32 6 -7 89 26 111 43 20 17 37 8 19 -10 -7 -7 -12 -18
-12 -25 0 -11 5 -11 20 -3 13 7 20 7 20 1 0 -6 -11 -13 -25 -17 -16 -4 -25
-13 -25 -25 0 -26 16 -24 45 5 44 44 53 9 43 -159 l-3 -50 43 -3 42 -3 0 71
c0 62 2 71 17 68 19 -3 37 -74 30 -116 l-4 -22 276 0 276 1 20 42 c10 23 20
49 22 57 8 57 17 77 39 93 14 11 28 17 30 14 3 -2 -7 -31 -21 -63 -14 -32 -29
-78 -32 -101 l-6 -43 47 0 c45 0 46 1 46 33 0 17 11 55 25 82 13 28 32 83 41
122 13 52 25 80 46 100 27 26 28 26 28 5 0 -28 48 -51 62 -30 14 23 9 38 -17
50 -35 16 -31 32 5 25 27 -6 30 -4 30 18 0 17 -7 28 -23 34 -25 10 -55 41 -39
41 5 0 22 -7 38 -15 25 -13 29 -12 42 6 12 17 11 22 -10 39 -13 11 -40 23 -60
26 -20 4 -39 13 -42 20 -3 8 -19 14 -38 13 -29 -1 -30 -2 -9 -8 38 -10 36 -29
-3 -39 -20 -6 -50 -20 -67 -33 l-32 -22 7 37 c7 37 1 76 -12 76 -4 0 -8 -22
-8 -49 -2 -59 -15 -84 -68 -134 -78 -74 -157 -129 -243 -169 -97 -45 -118 -46
-206 -4 l-52 24 73 1 c79 1 105 11 185 68 26 18 53 32 60 31 13 -3 67 40 67
54 0 4 7 16 16 26 36 40 78 100 99 142 35 69 63 230 64 371 1 68 6 128 12 135
5 7 11 26 14 43 6 47 15 57 33 35 13 -16 14 -17 9 -1 -4 9 -2 17 4 17 6 0 9 7
5 15 -3 9 0 15 9 15 18 0 18 5 4 32 -6 11 -15 80 -20 154 -10 146 -30 217 -74
268 -14 16 -25 32 -25 36 0 7 -117 98 -165 128 -18 11 -73 37 -130 62 -26 11
-33 12 -135 15 -47 1 -97 -1 -112 -4z"/>
<path d="M1917 410 c-4 -16 1 -24 18 -32 30 -14 24 -27 -10 -20 -20 3 -25 0
-25 -17 0 -12 -7 -32 -15 -45 -16 -24 -85 -252 -85 -280 0 -13 16 -16 100 -16
l100 0 0 45 c0 35 -3 43 -15 39 -10 -4 -15 0 -15 15 0 12 6 24 14 27 11 4 14
34 15 133 1 137 -3 149 -55 165 -16 5 -23 2 -27 -14z"/>
<path d="M1770 248 c-7 -24 -22 -61 -34 -83 -14 -24 -25 -64 -29 -103 -5 -60
-4 -62 18 -62 20 0 27 10 49 78 14 42 26 84 26 93 0 8 13 36 29 61 l29 46 -30
6 c-46 9 -46 9 -58 -36z"/>
<path d="M672 234 c-23 -14 -64 -29 -90 -34 -26 -4 -76 -13 -111 -20 -35 -6
-71 -15 -80 -19 -9 -5 -30 -8 -48 -6 -32 3 -93 -26 -93 -45 0 -5 -13 -16 -29
-24 -16 -9 -38 -31 -49 -51 l-21 -35 29 0 c17 0 39 9 51 21 16 16 29 20 50 15
22 -4 31 -1 39 15 6 11 16 17 21 13 17 -10 -22 -44 -52 -44 -15 0 -31 -5 -34
-10 -4 -6 13 -10 44 -10 30 0 51 5 54 13 3 9 9 9 26 0 14 -9 69 -13 170 -13
l149 0 16 47 c21 61 20 83 -1 83 -17 1 -17 2 0 15 13 9 17 20 12 35 -6 20 -8
20 -24 6 -10 -9 -26 -16 -36 -16 -14 0 -11 6 15 25 34 25 50 43 50 58 0 12
-13 8 -58 -19z"/>
</g>
</svg>
